<svg width="16" height="16" xmlns="http://www.w3.org/2000/svg"><path d="M6 5a1 1 0 001 1h2a1 1 0 001-1V3a1 1 0 00-1-1H7a1 1 0 00-1 1v2zm4.898.633A2 2 0 019 7h-.5v3H9a1 1 0 011 1v2a1 1 0 01-1 1H7a1 1 0 01-1-1v-2a1 1 0 011-1h.5V7H7a2 2 0 01-1.898-1.367C4.158 5.925 3.5 6.663 3.5 7.5V10H4a1 1 0 011 1v2a1 1 0 01-1 1H2a1 1 0 01-1-1v-2a1 1 0 011-1h.5V7.5c0-1.375 1.063-2.51 2.5-2.876V3a2 2 0 012-2h2a2 2 0 012 2v1.624c1.437.366 2.5 1.5 2.5 2.876V10h.5a1 1 0 011 1v2a1 1 0 01-1 1h-2a1 1 0 01-1-1v-2a1 1 0 011-1h.5V7.5c0-.837-.658-1.575-1.602-1.867zM8.5 11H7v2h2v-2h-.5zM2 11v2h2v-2H2zm10 0v2h2v-2h-2z"/></svg>