<svg width="16" height="16" xmlns="http://www.w3.org/2000/svg"><path d="M14.964 9.89c.02.12.015.265-.016.435a2.52 2.52 0 01-.405.99.92.92 0 01-.33.3.721.721 0 01-.316.092c-.09 0-.19-.02-.3-.06a3.23 3.23 0 00-.375-.083 1.815 1.815 0 00-.459-.015 2.18 2.18 0 00-.464.097.9.9 0 00-.397.255c-.24.25-.382.536-.422.856-.04.32.005.626.136.916.1.201.084.4-.045.6-.06.081-.157.164-.285.248a3.17 3.17 0 01-.429.234c-.154.07-.317.125-.488.165a2.06 2.06 0 01-.451.06.385.385 0 01-.255-.105.605.605 0 01-.165-.226 2.026 2.026 0 00-.578-.803 1.382 1.382 0 00-.924-.338c-.34 0-.648.112-.923.338a1.825 1.825 0 00-.579.788.512.512 0 01-.225.264.67.67 0 01-.33.081 1.71 1.71 0 01-.473-.075 4.477 4.477 0 01-.525-.188 2.482 2.482 0 01-.473-.263c-.14-.1-.245-.2-.316-.3a.462.462 0 01-.083-.247c-.005-.095.033-.228.113-.398a1.51 1.51 0 00.128-.79c-.025-.295-.152-.568-.383-.818a.971.971 0 00-.51-.292 2.06 2.06 0 00-.57-.053c-.211.01-.426.05-.647.12-.14.04-.28.03-.42-.03-.11-.04-.213-.132-.309-.277a3.219 3.219 0 01-.255-.48 2.996 2.996 0 01-.173-.541 1.259 1.259 0 01-.03-.458c.03-.22.13-.36.3-.42.3-.121.57-.318.81-.594.241-.276.361-.583.361-.924 0-.35-.12-.655-.36-.916a2.23 2.23 0 00-.81-.57c-.089-.029-.163-.101-.223-.217A.76.76 0 011 5.896c0-.13.02-.276.06-.436.04-.16.092-.315.158-.466.065-.15.14-.287.225-.413a.932.932 0 01.277-.277.35.35 0 01.234-.06c.075.01.158.03.247.06.3.12.613.157.94.112.324-.044.612-.187.862-.427.12-.12.207-.268.263-.443a2.534 2.534 0 00.105-.984 5.294 5.294 0 00-.037-.3 1.6 1.6 0 01-.053-.21.333.333 0 01.022-.21.852.852 0 01.323-.368c.155-.105.322-.193.503-.263.18-.07.356-.122.526-.158A2.12 2.12 0 016.06 1c.13 0 .232.042.308.128a.772.772 0 01.157.263c.11.27.29.507.54.713.25.206.547.309.887.309.35 0 .66-.098.93-.294.271-.195.461-.443.572-.743a.971.971 0 01.187-.247c.085-.086.172-.128.263-.128.14 0 .293.02.458.06.166.04.329.095.488.165.16.069.309.16.443.27.136.11.243.23.324.361.05.08.065.167.045.262a.915.915 0 01-.06.203c-.13.29-.17.595-.121.916.05.32.196.6.435.841.24.24.537.373.886.398.35.025.677-.032.977-.172.08-.05.177-.07.292-.06.116.01.212.055.293.134.15.14.282.354.397.639a3.6 3.6 0 01.233.863c.02.17-.008.303-.082.398a.567.567 0 01-.234.188 1.76 1.76 0 00-.794.578 1.46 1.46 0 00-.33.938 1.492 1.492 0 001.004 1.441c.07.04.13.08.18.12.11.09.186.205.226.346zm-6.97 1.09c.413 0 .804-.08 1.17-.235.369-.156.689-.372.96-.648.272-.277.486-.596.642-.959A2.92 2.92 0 0011 7.973c0-.414-.078-.803-.234-1.165a3.007 3.007 0 00-.642-.952 3 3 0 00-.96-.642 2.965 2.965 0 00-1.17-.235c-.414 0-.804.079-1.167.235a3.014 3.014 0 00-1.592 1.594A2.916 2.916 0 005 7.973c0 .413.078.802.235 1.165.156.362.37.682.641.959a3 3 0 00.952.648 2.92 2.92 0 001.165.234z" fill-rule="evenodd"/></svg>